<svg width="129" height="129" viewBox="0 0 129 129" fill="none" xmlns="http://www.w3.org/2000/svg">
<path d="M48.4914 127.953C26.6714 127.953 9.5715 122.473 1.8215 118.373C1.0915 117.983 0.811507 117.073 1.20151 116.343C1.59151 115.613 2.49141 115.333 3.23141 115.723C14.1014 121.473 44.0214 130.003 79.4714 121.133C109.541 113.613 117.641 104.463 121.981 99.5531C122.661 98.7931 123.242 98.1231 123.822 97.5831C125.012 96.4431 125.451 94.0131 124.191 92.2031C123.321 90.9531 119.491 87.343 106.781 93.523C92.8415 100.293 83.5315 100.753 75.3315 101.153C71.4615 101.343 67.8014 101.523 63.8714 102.313C63.0514 102.473 62.2714 101.953 62.1014 101.133C61.9414 100.323 62.4615 99.5331 63.2815 99.3631C67.4415 98.5331 71.2015 98.343 75.1915 98.153C83.5015 97.743 92.0914 97.3231 105.481 90.8231C119.941 83.8031 125.111 88.2531 126.671 90.4931C128.641 93.3231 128.291 97.4831 125.901 99.7531C125.421 100.213 124.871 100.833 124.241 101.543C119.681 106.703 111.181 116.303 80.2114 124.053C68.9814 126.863 58.2714 127.963 48.5114 127.963L48.4914 127.953Z" fill="#1A1A1A" stroke="black" stroke-width="2" stroke-miterlimit="10"/>
<path d="M46.5818 106.033C42.4818 106.033 39.5917 105.373 39.3517 105.323C38.5417 105.133 38.0517 104.323 38.2317 103.523C38.4217 102.713 39.2218 102.213 40.0318 102.403C40.1418 102.433 51.1618 104.913 60.5418 99.6831C60.7518 99.5631 61.0017 99.5031 61.2417 99.4931C71.3017 99.3031 80.2418 91.7331 80.2018 88.2431C80.1718 86.0131 75.3718 85.8631 73.8918 85.8631C43.9618 85.0231 3.16175 91.7931 2.75175 91.8631C1.94175 91.9931 1.16177 91.4531 1.02177 90.6331C0.881765 89.8131 1.43175 89.043 2.25175 88.903C2.66175 88.833 43.7518 82.0131 73.9218 82.8631H74.0418C81.9418 82.8631 83.1618 86.2031 83.1918 88.2031C83.2618 93.9331 72.4918 102.093 61.6718 102.473C56.4018 105.313 50.8318 106.023 46.5618 106.023L46.5818 106.033Z" fill="#1A1A1A" stroke="black" stroke-width="2" stroke-miterlimit="10"/>
<path d="M61.6323 63.7631C55.0323 63.7631 48.1224 62.0931 40.9524 58.7531C40.2024 58.4031 39.8723 57.5131 40.2223 56.7631C40.5723 56.0131 41.4623 55.683 42.2123 56.033C54.8623 61.923 66.5823 62.2931 77.0423 57.1431C91.1023 50.2131 102.102 33.5631 107.322 11.3331C86.3924 2.53307 66.5223 1.59303 52.6723 8.79303C42.4323 14.113 35.8223 23.613 33.0423 37.023C32.8723 37.833 32.0723 38.353 31.2723 38.183C30.4623 38.0131 29.9423 37.223 30.1123 36.413C33.0923 22.063 40.2123 11.8731 51.3023 6.12311C66.2223 -1.61689 87.4923 -0.546948 109.682 9.06305C110.342 9.35305 110.702 10.0631 110.552 10.7631C105.252 34.4831 93.5323 52.3631 78.3923 59.8231C73.0823 62.4431 67.4923 63.7431 61.6523 63.7431L61.6323 63.7631Z" fill="#1A1A1A" stroke="black" stroke-width="2" stroke-miterlimit="10"/>
<path d="M17.3119 61.2531C16.8719 61.2531 16.4318 61.0631 16.1418 60.6931C15.6218 60.0431 15.7318 59.1031 16.3718 58.5831C30.3318 47.4031 59.6319 31.263 78.0619 32.163C78.8919 32.203 79.5318 32.9031 79.4918 33.7331C79.4518 34.5631 78.7518 35.203 77.9218 35.163C60.2118 34.333 31.8518 50.033 18.2518 60.933C17.9718 61.153 17.6419 61.2631 17.3119 61.2631V61.2531Z" fill="#1A1A1A" stroke="black" stroke-width="2" stroke-miterlimit="10"/>
<path d="M61.9009 37.583C61.4209 37.583 60.9509 37.353 60.6609 36.933C60.1909 36.253 60.3709 35.313 61.0509 34.853C67.1109 30.713 69.4309 20.523 69.4509 20.413C69.6309 19.603 70.4308 19.093 71.2408 19.273C72.0508 19.453 72.5609 20.253 72.3809 21.063C72.2809 21.533 69.7808 32.523 62.7408 37.333C62.4808 37.513 62.1909 37.593 61.9009 37.593V37.583Z" fill="#1A1A1A" stroke="black" stroke-width="2" stroke-miterlimit="10"/>
</svg>
