<svg width="131" height="125" viewBox="0 0 131 125" fill="none" xmlns="http://www.w3.org/2000/svg">
<path d="M98.5298 89.0499H84.8198C81.2798 89.0499 77.7902 87.8499 74.9902 85.6799L65.7798 78.5299C61.0698 74.8799 54.5 74.8799 49.79 78.5299L40.5801 85.6799C37.7801 87.8499 34.29 89.0499 30.75 89.0499H17.04C8.20004 89.0499 1 81.8599 1 73.0099V41.6799C1 32.8399 8.19004 25.6399 17.04 25.6399H98.5498C107.39 25.6399 114.59 32.8299 114.59 41.6799V73.0099C114.59 81.8499 107.4 89.0499 98.5498 89.0499H98.5298ZM57.7798 72.7899C61.2498 72.7899 64.7199 73.9099 67.6099 76.1599L76.8198 83.3099C79.0898 85.0699 81.9301 86.0499 84.8101 86.0499H98.52C105.71 86.0499 111.56 80.1999 111.56 73.0099V41.6799C111.56 34.4899 105.71 28.6399 98.52 28.6399H17.0098C9.81977 28.6399 3.97021 34.4899 3.97021 41.6799V73.0099C3.97021 80.1999 9.81977 86.0499 17.0098 86.0499H30.7202C33.6002 86.0499 36.44 85.0799 38.71 83.3099L47.9199 76.1599C50.8199 73.9099 54.28 72.7899 57.75 72.7899H57.7798Z" fill="#1A1A1A" stroke="black" stroke-width="2" stroke-miterlimit="10"/>
<path d="M74.7993 68.3998C74.4793 68.3998 74.1494 68.2998 73.8794 68.0798C69.2994 64.5198 63.5793 62.5599 57.7793 62.5599C51.9793 62.5599 46.2596 64.5198 41.6796 68.0798C41.0296 68.5898 40.0796 68.4698 39.5796 67.8198C39.0696 67.1698 39.1896 66.2198 39.8496 65.7198C44.9596 61.7598 51.3295 59.5698 57.7895 59.5698C64.2495 59.5698 70.6195 61.7498 75.7295 65.7198C76.3795 66.2298 76.4995 67.1698 75.9995 67.8198C75.6995 68.1998 75.2595 68.3998 74.8095 68.3998H74.7993Z" fill="#1A1A1A" stroke="black" stroke-width="2" stroke-miterlimit="10"/>
<path d="M15.7109 60.5699C14.8809 60.5699 14.2109 59.8999 14.2109 59.0699V43.98C14.2109 43.15 14.8809 42.48 15.7109 42.48C16.5409 42.48 17.2109 43.15 17.2109 43.98V59.0699C17.2109 59.8999 16.5409 60.5699 15.7109 60.5699Z" fill="#1A1A1A" stroke="black" stroke-width="2" stroke-miterlimit="10"/>
<path d="M102.98 119.8H102.94L91.9805 119.78C91.1505 119.78 90.4805 119.11 90.4805 118.28C90.4805 117.45 91.1505 116.78 91.9805 116.78L102.94 116.8H102.98C109.27 116.8 115.191 114.35 119.641 109.9C124.101 105.44 126.561 99.5099 126.561 93.2V4H114.561V21.72C114.561 22.55 113.891 23.22 113.061 23.22C112.231 23.22 111.561 22.55 111.561 21.72V2.5C111.561 1.67 112.231 1 113.061 1H128.061C128.891 1 129.561 1.67 129.561 2.5V93.2C129.561 100.31 126.79 107 121.76 112.02C116.74 117.03 110.07 119.79 102.98 119.79V119.8Z" fill="#1A1A1A" stroke="black" stroke-width="2" stroke-miterlimit="10"/>
<path d="M102.27 104.72H92.0098C91.1798 104.72 90.5098 104.05 90.5098 103.22C90.5098 102.39 91.1798 101.72 92.0098 101.72H102.27C107.22 101.72 111.3 97.85 111.56 92.91C111.6 92.08 112.32 91.47 113.14 91.49C113.97 91.53 114.6 92.2399 114.56 93.0699C114.21 99.5999 108.81 104.72 102.27 104.72Z" fill="#1A1A1A" stroke="black" stroke-width="2" stroke-miterlimit="10"/>
<path d="M75.23 123.92H56.2998C51.7198 123.92 47.9902 120.19 47.9902 115.61V105.84C47.9902 101.26 51.7198 97.53 56.2998 97.53H75.23C79.81 97.53 83.54 101.26 83.54 105.84V115.61C83.54 120.19 79.81 123.92 75.23 123.92ZM56.2998 100.52C53.3698 100.52 50.9902 102.9 50.9902 105.83V115.6C50.9902 118.53 53.3698 120.91 56.2998 120.91H75.23C78.16 120.91 80.54 118.53 80.54 115.6V105.83C80.54 102.9 78.16 100.52 75.23 100.52H56.2998Z" fill="#1A1A1A" stroke="black" stroke-width="2" stroke-miterlimit="10"/>
</svg>
