<svg width="130" height="130" viewBox="0 0 130 130" fill="none" xmlns="http://www.w3.org/2000/svg">
<path d="M65 84.5C75.7696 84.5 84.5 75.7696 84.5 65C84.5 54.2304 75.7696 45.5 65 45.5C54.2304 45.5 45.5 54.2304 45.5 65C45.5 75.7696 54.2304 84.5 65 84.5Z" fill="black"/>
<path d="M71.5 13.4485V0H58.5V13.4485C47.0611 14.9068 36.4303 20.1223 28.2763 28.2763C20.1223 36.4303 14.9068 47.0611 13.4485 58.5H0V71.5H13.4485C14.9057 82.9393 20.1209 93.5707 28.2751 101.725C36.4293 109.879 47.0607 115.094 58.5 116.551V130H71.5V116.551C82.9393 115.094 93.5707 109.879 101.725 101.725C109.879 93.5707 115.094 82.9393 116.551 71.5H130V58.5H116.551C115.093 47.0611 109.878 36.4303 101.724 28.2763C93.5697 20.1223 82.9389 14.9068 71.5 13.4485ZM65 104C43.4915 104 26 86.5085 26 65C26 43.4915 43.4915 26 65 26C86.5085 26 104 43.4915 104 65C104 86.5085 86.5085 104 65 104Z" fill="black"/>
</svg>
