<svg width="123" height="123" viewBox="0 0 123 123" fill="none" xmlns="http://www.w3.org/2000/svg">
<path d="M81.61 4.73C81.61 2.12 84.19 0 87.38 0C90.57 0 93.15 2.12 93.15 4.73V25.45C93.15 28.06 90.57 30.18 87.38 30.18C84.19 30.18 81.61 28.06 81.61 25.45V4.73ZM66.11 103.81C65.77 103.81 65.5 102.38 65.5 100.61C65.5 98.84 65.77 97.41 66.11 97.41H81.9C82.24 97.41 82.51 98.84 82.51 100.61C82.51 102.38 82.24 103.81 81.9 103.81H66.11ZM15.85 67.09C15.51 67.09 15.24 65.66 15.24 63.89C15.24 62.12 15.51 60.69 15.85 60.69H31.64C31.98 60.69 32.25 62.12 32.25 63.89C32.25 65.66 31.98 67.09 31.64 67.09H15.85ZM40.98 67.09C40.64 67.09 40.37 65.66 40.37 63.89C40.37 62.12 40.64 60.69 40.98 60.69H56.77C57.11 60.69 57.38 62.12 57.38 63.89C57.38 65.66 57.11 67.09 56.77 67.09H40.98ZM66.11 67.09C65.77 67.09 65.5 65.66 65.5 63.89C65.5 62.12 65.77 60.69 66.11 60.69H81.9C82.24 60.69 82.51 62.12 82.51 63.89C82.51 65.66 82.24 67.09 81.9 67.09H66.11ZM91.25 67.09C90.91 67.09 90.64 65.66 90.64 63.89C90.64 62.12 90.91 60.69 91.25 60.69H107.04C107.38 60.69 107.65 62.12 107.65 63.89C107.65 65.66 107.38 67.09 107.04 67.09H91.25ZM15.85 85.45C15.51 85.45 15.24 84.02 15.24 82.25C15.24 80.48 15.51 79.05 15.85 79.05H31.64C31.98 79.05 32.25 80.48 32.25 82.25C32.25 84.02 31.98 85.45 31.64 85.45H15.85ZM40.98 85.45C40.64 85.45 40.37 84.02 40.37 82.25C40.37 80.48 40.64 79.05 40.98 79.05H56.77C57.11 79.05 57.38 80.48 57.38 82.25C57.38 84.02 57.11 85.45 56.77 85.45H40.98ZM66.11 85.45C65.77 85.45 65.5 84.02 65.5 82.25C65.5 80.48 65.77 79.05 66.11 79.05H81.9C82.24 79.05 82.51 80.48 82.51 82.25C82.51 84.02 82.24 85.45 81.9 85.45H66.11ZM91.25 85.45C90.91 85.45 90.64 84.02 90.64 82.25C90.64 80.48 90.91 79.05 91.25 79.05H107.04C107.38 79.05 107.65 80.48 107.65 82.25C107.65 84.02 107.38 85.45 107.04 85.45H91.25ZM15.85 103.81C15.51 103.81 15.24 102.38 15.24 100.61C15.24 98.84 15.51 97.41 15.85 97.41H31.64C31.98 97.41 32.25 98.84 32.25 100.61C32.25 102.38 31.98 103.81 31.64 103.81H15.85ZM40.98 103.81C40.64 103.81 40.37 102.38 40.37 100.61C40.37 98.84 40.64 97.41 40.98 97.41H56.77C57.11 97.41 57.38 98.84 57.38 100.61C57.38 102.38 57.11 103.81 56.77 103.81H40.98ZM29.61 4.73C29.61 2.12 32.19 0 35.38 0C38.57 0 41.15 2.12 41.15 4.73V25.45C41.15 28.06 38.57 30.18 35.38 30.18C32.19 30.18 29.61 28.06 29.61 25.45V4.73ZM6.4 45.32H116.47V21.47C116.47 20.67 116.14 19.94 115.61 19.4C115.08 18.87 114.35 18.54 113.54 18.54H103C101.23 18.54 99.8 17.11 99.8 15.34C99.8 13.57 101.23 12.14 103 12.14H113.55C116.12 12.14 118.45 13.19 120.14 14.88C121.83 16.57 122.88 18.9 122.88 21.47V48.53V113.56C122.88 116.13 121.83 118.46 120.14 120.15C118.45 121.84 116.12 122.89 113.55 122.89H9.33C6.76 122.89 4.43 121.84 2.74 120.15C1.05 118.45 0 116.12 0 113.55V48.52V21.47C0 18.9 1.05 16.57 2.74 14.88C4.43 13.19 6.76 12.14 9.33 12.14H20.6C22.37 12.14 23.8 13.57 23.8 15.34C23.8 17.11 22.37 18.54 20.6 18.54H9.33C8.53 18.54 7.8 18.87 7.26 19.4C6.73 19.93 6.4 20.66 6.4 21.47V45.32ZM116.48 51.73H6.4V113.55C6.4 114.35 6.73 115.08 7.26 115.62C7.79 116.15 8.52 116.48 9.33 116.48H113.55C114.35 116.48 115.08 116.15 115.62 115.62C116.15 115.09 116.48 114.36 116.48 113.55V51.73ZM50.43 18.54C48.66 18.54 47.23 17.11 47.23 15.34C47.23 13.57 48.66 12.14 50.43 12.14H71.92C73.69 12.14 75.12 13.57 75.12 15.34C75.12 17.11 73.69 18.54 71.92 18.54H50.43Z" fill="black"/>
</svg>
