<svg width="130" height="130" viewBox="0 0 130 130" fill="none" xmlns="http://www.w3.org/2000/svg">
<path d="M65 97.4999L71.5 84.5V51.077C82.6865 48.1715 91 38.077 91 26C91 11.661 79.339 0 65 0C50.661 0 39 11.661 39 26C39 38.077 47.3135 48.1715 58.5 51.077V84.5L65 97.4999ZM52 26C52 18.8305 57.8305 13 65 13C72.1695 13 78 18.8305 78 26C78 33.1695 72.1695 39 65 39C57.8305 39 52 33.1695 52 26Z" fill="black"/>
<path d="M92.7355 55.6596L89.271 68.1916C106.113 72.8456 117 81.7961 117 91.0001C117 103.298 95.6475 117 65 117C34.3525 117 13 103.298 13 91.0001C13 81.7961 23.8875 72.8456 40.7355 68.1851L37.271 55.6531C14.2805 62.0101 0 75.5496 0 91.0001C0 112.866 28.5545 130 65 130C101.445 130 130 112.866 130 91.0001C130 75.5496 115.72 62.0101 92.7355 55.6596Z" fill="black"/>
</svg>
