<svg width="110" height="150" viewBox="0 0 110 150" fill="none" xmlns="http://www.w3.org/2000/svg">
<path d="M106.209 0H2.93617C1.31423 0 0 1.07138 0 2.39362V21.0054V74.3521V147.606C0 148.929 1.31423 150 2.93617 150H106.209C107.831 150 109.145 148.929 109.145 147.606V74.3524V21.0054V2.39362C109.145 1.07138 107.831 0 106.209 0ZM103.273 71.9588H5.87234V23.399H103.273V71.9588H103.273ZM5.87234 76.7461H103.273V100.682H5.87234V76.7461ZM103.273 4.78723V18.6118H5.87234V4.78723H103.273ZM5.87234 145.213V105.469H103.273V145.213H5.87234Z" fill="black"/>
<path d="M67.0597 108.661H42.0846C40.4627 108.661 39.1484 109.733 39.1484 111.055V131.649C39.1484 132.971 40.4627 134.043 42.0846 134.043H67.0597C68.6816 134.043 69.9958 132.971 69.9958 131.649V111.055C69.9958 109.733 68.6816 108.661 67.0597 108.661ZM64.1235 129.255H45.0208V113.448H64.1235V129.255Z" fill="black"/>
<path d="M90.5483 91.1077H86.6334C85.0115 91.1077 83.6973 92.179 83.6973 93.5013C83.6973 94.8235 85.0115 95.8949 86.6334 95.8949H90.5483C92.1703 95.8949 93.4845 94.8235 93.4845 93.5013C93.4845 92.179 92.1703 91.1077 90.5483 91.1077Z" fill="black"/>
<path d="M74.8901 91.1077H70.9752C69.3533 91.1077 68.0391 92.179 68.0391 93.5013C68.0391 94.8235 69.3533 95.8949 70.9752 95.8949H74.8901C76.5121 95.8949 77.8263 94.8235 77.8263 93.5013C77.8263 92.179 76.5121 91.1077 74.8901 91.1077Z" fill="black"/>
<path d="M86.6334 86.3204H90.5483C92.1703 86.3204 93.4845 85.2491 93.4845 83.9268C93.4845 82.6046 92.1703 81.5332 90.5483 81.5332H86.6334C85.0115 81.5332 83.6973 82.6046 83.6973 83.9268C83.6973 85.2491 85.0119 86.3204 86.6334 86.3204Z" fill="black"/>
<path d="M74.8901 81.5332H70.9752C69.3533 81.5332 68.0391 82.6046 68.0391 83.9268C68.0391 85.2491 69.3533 86.3204 70.9752 86.3204H74.8901C76.5121 86.3204 77.8263 85.2491 77.8263 83.9268C77.8263 82.6046 76.5121 81.5332 74.8901 81.5332Z" fill="black"/>
<path d="M22.5112 91.1077H18.5963C16.9744 91.1077 15.6602 92.179 15.6602 93.5013C15.6602 94.8235 16.9744 95.8949 18.5963 95.8949H22.5112C24.1332 95.8949 25.4474 94.8235 25.4474 93.5013C25.4474 92.179 24.1328 91.1077 22.5112 91.1077Z" fill="black"/>
<path d="M54.5722 81.5332C49.7154 81.5332 45.7637 84.7547 45.7637 88.7141C45.7637 92.6734 49.7154 95.8949 54.5722 95.8949C59.429 95.8949 63.3807 92.6734 63.3807 88.7141C63.3807 84.7547 59.429 81.5332 54.5722 81.5332ZM54.5722 91.1077C52.953 91.1077 51.636 90.0341 51.636 88.7141C51.636 87.3941 52.953 86.3204 54.5722 86.3204C56.1914 86.3204 57.5084 87.3941 57.5084 88.7141C57.5084 90.0341 56.1914 91.1077 54.5722 91.1077Z" fill="black"/>
<path d="M14.6803 67.1716H94.4635C96.0854 67.1716 97.3997 66.1002 97.3997 64.778V30.5799C97.3997 29.2577 96.0854 28.1863 94.4635 28.1863H14.6803C13.0584 28.1863 11.7441 29.2577 11.7441 30.5799V64.7777C11.7441 66.0999 13.0584 67.1716 14.6803 67.1716ZM17.6165 32.9735H91.5273V62.384H17.6165V32.9735Z" fill="black"/>
</svg>
